<svg xmlns="http://www.w3.org/2000/svg" viewBox="0 0 46.57 98.85"><defs><style>.cls-1{fill:none;stroke:#000;stroke-linecap:round;stroke-linejoin:round;stroke-width:3px;}</style></defs><title>Asset 14</title><g id="Layer_2" data-name="Layer 2"><g id="Layer_2-2" data-name="Layer 2"><path class="cls-1" d="M13.48,36.74H17.4A6.37,6.37,0,1,1,17.4,24h1.1c6.42-1,9.62-10.61,9.62-10.61C37.9,16.46,33,24,33,24h1.74a6.37,6.37,0,0,1,0,12.74h3.93a6.37,6.37,0,0,1,0,12.73H13.48a6.37,6.37,0,1,1,0-12.73Z"/><path class="cls-1" d="M20.17,49.47H42.23a2,2,0,0,1,2,2.05V57.4a2,2,0,0,1-2,2.05H10A2.05,2.05,0,0,1,7.91,57.4V51.52A2.05,2.05,0,0,1,10,49.47Z"/><path class="cls-1" d="M30.22,59.45h11L34,94a4.27,4.27,0,0,1-4.18,3.4H22.21A4.27,4.27,0,0,1,18,94l-7.14-34.5H30.22"/><line class="cls-1" x1="17.32" y1="89.83" x2="36.79" y2="80.68"/><line class="cls-1" x1="15.49" y1="81.03" x2="39" y2="69.97"/><line class="cls-1" x1="13.67" y1="72.22" x2="40.2" y2="59.74"/><path class="cls-1" d="M12.37,26.48,2,7.87A4.29,4.29,0,0,1,3.71,2h0A4.28,4.28,0,0,1,9.53,3.71L20.47,23.4"/><line class="cls-1" x1="3.83" y1="11.08" x2="11.32" y2="6.93"/><line class="cls-1" x1="8.38" y1="19.3" x2="15.88" y2="15.14"/></g></g></svg>