<?xml version="1.0" encoding="utf-8"?>
<!-- Generator: Adobe Illustrator 25.0.0, SVG Export Plug-In . SVG Version: 6.00 Build 0)  -->
<svg version="1.1" id="Layer_1" xmlns="http://www.w3.org/2000/svg" xmlns:xlink="http://www.w3.org/1999/xlink" x="0px" y="0px"
	 viewBox="0 0 557.64 456.2" style="enable-background:new 0 0 557.64 456.2;" xml:space="preserve">
<style type="text/css">
	.st0{fill:#A7A9AB;}
	.st1{opacity:0.6;}
	.st2{fill:#CC8D57;}
	.st3{fill:#FFFFFF;}
	.st4{fill:#2D2D2D;}
	.st5{fill:#494949;}
	.st6{fill:#F2F1F2;}
	.st7{fill:#3C3D3D;}
	.st8{fill:#626262;}
	.st9{fill:#F0AC68;}
	.st10{fill:#1D1E1D;}
	.st11{fill:#393A39;}
	.st12{fill-rule:evenodd;clip-rule:evenodd;fill:#ED714B;}
	.st13{clip-path:url(#SVGID_2_);fill:#2B3A8D;}
	.st14{fill-rule:evenodd;clip-rule:evenodd;fill:#F09271;}
	.st15{fill:#386288;}
	.st16{filter:url(#Adobe_OpacityMaskFilter);}
	.st17{filter:url(#Adobe_OpacityMaskFilter_1_);}
	.st18{mask:url(#SVGID_3_);fill:url(#SVGID_4_);}
	.st19{opacity:0.5;}
	.st20{clip-path:url(#SVGID_6_);fill:#4459A5;}
	.st21{clip-path:url(#SVGID_6_);fill:#455AA5;}
	.st22{clip-path:url(#SVGID_6_);fill:#465AA5;}
	.st23{clip-path:url(#SVGID_6_);fill:#475BA6;}
	.st24{clip-path:url(#SVGID_6_);fill:#485BA6;}
	.st25{clip-path:url(#SVGID_6_);fill:#495CA7;}
	.st26{clip-path:url(#SVGID_6_);fill:#4A5DA7;}
	.st27{clip-path:url(#SVGID_6_);fill:#4B5DA7;}
	.st28{clip-path:url(#SVGID_6_);fill:#4C5EA8;}
	.st29{clip-path:url(#SVGID_6_);fill:#4D5FA8;}
	.st30{clip-path:url(#SVGID_8_);fill:#5361AA;}
	.st31{fill:#DCDBDC;}
	.st32{fill:#88BE46;}
	.st33{fill:#EA5151;}
	.st34{filter:url(#Adobe_OpacityMaskFilter_2_);}
	.st35{filter:url(#Adobe_OpacityMaskFilter_3_);}
	.st36{mask:url(#SVGID_9_);fill:url(#SVGID_10_);}
	.st37{clip-path:url(#SVGID_12_);fill:#4358A4;}
	.st38{clip-path:url(#SVGID_12_);fill:#4459A5;}
	.st39{clip-path:url(#SVGID_12_);fill:#455AA5;}
	.st40{clip-path:url(#SVGID_12_);fill:#465AA5;}
	.st41{clip-path:url(#SVGID_12_);fill:#475BA6;}
	.st42{clip-path:url(#SVGID_12_);fill:#485BA6;}
	.st43{clip-path:url(#SVGID_12_);fill:#495CA7;}
	.st44{clip-path:url(#SVGID_12_);fill:#4A5DA7;}
	.st45{clip-path:url(#SVGID_12_);fill:#4B5DA7;}
	.st46{clip-path:url(#SVGID_12_);fill:#4C5EA8;}
	.st47{clip-path:url(#SVGID_12_);fill:#4D5FA8;}
	.st48{opacity:0.27;}
	.st49{clip-path:url(#SVGID_14_);fill:#5964AC;}
	.st50{clip-path:url(#SVGID_14_);fill:#5864AB;}
	.st51{clip-path:url(#SVGID_14_);fill:#5763AB;}
	.st52{clip-path:url(#SVGID_14_);fill:#5662AB;}
	.st53{clip-path:url(#SVGID_14_);fill:#5562AA;}
	.st54{clip-path:url(#SVGID_14_);fill:#5461AA;}
	.st55{clip-path:url(#SVGID_14_);fill:#5361AA;}
	.st56{fill:#1B3A51;}
	.st57{fill:#EEA553;}
	.st58{fill-rule:evenodd;clip-rule:evenodd;fill:#DCDDDD;}
	.st59{fill:#484948;}
	.st60{fill-rule:evenodd;clip-rule:evenodd;fill:#484948;}
	.st61{fill-rule:evenodd;clip-rule:evenodd;fill:#282230;}
	.st62{fill:#282230;}
	.st63{fill:#F2F2F2;}
	.st64{fill:#ED714B;}
	.st65{fill:#F09271;}
	.st66{fill-rule:evenodd;clip-rule:evenodd;fill:#202023;}
	.st67{fill-rule:evenodd;clip-rule:evenodd;fill:#D56172;}
	.st68{fill:#202023;}
	.st69{filter:url(#Adobe_OpacityMaskFilter_4_);}
	.st70{filter:url(#Adobe_OpacityMaskFilter_5_);}
	.st71{mask:url(#SVGID_15_);fill:url(#SVGID_16_);}
	.st72{fill:#DCDDDD;}
	.st73{filter:url(#Adobe_OpacityMaskFilter_6_);}
	.st74{filter:url(#Adobe_OpacityMaskFilter_7_);}
	.st75{mask:url(#SVGID_17_);fill:url(#SVGID_18_);}
	.st76{fill:#545554;}
</style>
<g>
	<path class="st0" d="M466.06,395.01H60.18c-2.82,0-5.1,2.28-5.1,5.1c0,2.82,2.28,5.1,5.1,5.1h405.88c2.82,0,5.1-2.28,5.1-5.1
		C471.16,397.3,468.88,395.01,466.06,395.01z"/>
	<g>
		<g class="st1">
			<g>
				<g>
					<rect x="62.16" y="149.05" class="st2" width="140.83" height="251.07"/>
				</g>
				<g>
					<rect x="62.16" y="84.54" class="st2" width="140.83" height="60.42"/>
				</g>
			</g>
			<g>
				<rect x="103.74" y="111.05" class="st3" width="57.67" height="13.09"/>
			</g>
			<g>
				<rect x="103.74" y="103.35" class="st3" width="57.67" height="3.46"/>
			</g>
			<g>
				<path class="st3" d="M76.76,255.82h-3.05c-0.61,0-1.12-0.5-1.12-1.12v-73.43c0-0.61,0.5-1.12,1.12-1.12h3.05
					c0.61,0,1.12,0.5,1.12,1.12v73.43C77.88,255.31,77.37,255.82,76.76,255.82z"/>
			</g>
		</g>
		<g>
			<g>
				<g>
					<rect x="212" y="217.51" class="st4" width="73.66" height="5.13"/>
				</g>
				<g>
					<path class="st5" d="M266.39,217.51h5.89l-8.79-9.9l0,0c-2.28,0-3.5,2.7-1.98,4.4L266.39,217.51z"/>
				</g>
				<g>
					<path class="st5" d="M232.85,217.51h-5.89l8.79-9.9l0,0c2.28,0,3.5,2.7,1.98,4.4L232.85,217.51z"/>
				</g>
			</g>
			<g>
				<g>
					<g>
						<g>
							<path class="st4" d="M183.02,217.44l-4.18,0l-0.02-23.56c0-1.15,0.93-2.09,2.09-2.09l0,0c1.15,0,2.09,0.93,2.09,2.09
								L183.02,217.44z"/>
						</g>
						<g>
							<g>
								<path class="st6" d="M180.02,253.23l-1.14,2.34l-0.04-44.46l10.86-0.01l0,0C189.71,225.7,186.4,240.11,180.02,253.23z"/>
							</g>
						</g>
					</g>
				</g>
				<g>
					<g>
						<g>
							<path class="st4" d="M169.54,217.44l-4.18,0l-0.02-23.56c0-1.15,0.93-2.09,2.09-2.09l0,0c1.15,0,2.09,0.93,2.09,2.09
								L169.54,217.44z"/>
						</g>
						<g>
							<g>
								<path class="st6" d="M166.53,253.23l-1.14,2.34l-0.04-44.46l10.86-0.01l0,0C176.23,225.7,172.92,240.11,166.53,253.23z"/>
							</g>
						</g>
					</g>
				</g>
				<g>
					<rect x="148.76" y="221.53" class="st2" width="153.02" height="38.6"/>
				</g>
			</g>
			<g>
				<g>
					<rect x="73.69" y="243.9" class="st7" width="237.12" height="156.21"/>
				</g>
				<g>
					<rect x="73.69" y="267.07" class="st8" width="237.12" height="4.16"/>
				</g>
				<g>
					<rect x="217.45" y="280.03" class="st3" width="71.94" height="4.6"/>
				</g>
				<g>
					<rect x="96.61" y="280.03" class="st3" width="71.94" height="4.6"/>
				</g>
				<g>
					<rect x="207.12" y="294.23" class="st8" width="92.6" height="95.74"/>
				</g>
				<g>
					<rect x="84.4" y="294.23" class="st8" width="92.6" height="95.74"/>
				</g>
			</g>
			<g>
				<path class="st9" d="M225.81,212.56c0,0,10.45,4.22,15.17,2.71c4.72-1.51,9.23,0.82,13.42,0.32c4.18-0.49,10.17,0.66,12.38,0.07
					c2.2-0.59,5.35-0.36,6.52-1.47c1.17-1.1-0.87-4.36-2.16-6.59c-1.29-2.23-3.17-2.96-3.77-0.41c-0.6,2.55-2.99,0.88-4.64-0.8
					c-1.65-1.67-5.86-2.28-7.17-0.82c-1.3,1.46-6.07,4.64-7.89,2.02c-1.83-2.62-3.17-6.4-7.34-4.64c-4.17,1.76-6.68,6.11-9.52,3.43
					C227.98,203.73,224.39,209.21,225.81,212.56z"/>
			</g>
		</g>
		<g>
			<path class="st3" d="M257.88,163.38c0,0,1.61-10.79-1.36-12.77c-2.98-1.98-13.27-3.1-12.77-6.32c0.5-3.22,23.57-12.8,23.56-17.24
				c-0.01-2.89-18.35-11.41-39.43-5.83c-21.08,5.58,15,10.66,14.51,13.76c-0.5,3.1-11.41,5.21-12.03,8.68
				c-0.62,3.47,21.45,7.56,22.81,10.91c1.36,3.35,1.86,8.8,1.86,8.8H257.88z"/>
		</g>
		<g class="st1">
			<g class="st1">
				<rect x="222.53" y="88.55" class="st2" width="104.61" height="2.12"/>
			</g>
			<g class="st1">
				<g>
					<rect x="311.31" y="108.16" class="st2" width="2.24" height="11.53"/>
				</g>
				<g>
					<path class="st2" d="M314.51,109.06V94.88c0-1.15-0.94-2.09-2.09-2.09c-1.15,0-2.09,0.94-2.09,2.09v14.18H314.51z"/>
				</g>
				<g>
					<path class="st2" d="M312.43,96.63L312.43,96.63c-0.47,0-0.84-0.38-0.84-0.84v-9.67c0-0.47,0.38-0.84,0.84-0.84l0,0
						c0.47,0,0.84,0.38,0.84,0.84v9.67C313.27,96.25,312.89,96.63,312.43,96.63z"/>
				</g>
				<g>
					<path class="st2" d="M326.07,132.05c0,7.53-6.11,13.64-13.64,13.64c-7.53,0-13.64-6.11-13.64-13.64
						c0-7.53,6.11-13.64,13.64-13.64C319.96,118.41,326.07,124.52,326.07,132.05z"/>
				</g>
				<g>
					<path class="st2" d="M322,132.05c0,5.29-4.29,9.58-9.58,9.58c-5.29,0-9.58-4.29-9.58-9.58c0-5.29,4.29-9.58,9.58-9.58
						C317.72,122.48,322,126.76,322,132.05z"/>
				</g>
			</g>
			<g class="st1">
				<g>
					<rect x="237.54" y="108.16" class="st2" width="2.24" height="11.53"/>
				</g>
				<g>
					<path class="st2" d="M240.75,109.06V94.88c0-1.15-0.94-2.09-2.09-2.09c-1.15,0-2.09,0.94-2.09,2.09v14.18H240.75z"/>
				</g>
				<g>
					<path class="st2" d="M238.66,96.63L238.66,96.63c-0.47,0-0.84-0.38-0.84-0.84v-9.67c0-0.47,0.38-0.84,0.84-0.84l0,0
						c0.47,0,0.84,0.38,0.84,0.84v9.67C239.51,96.25,239.13,96.63,238.66,96.63z"/>
				</g>
				<g>
					
						<ellipse transform="matrix(0.9735 -0.2288 0.2288 0.9735 -24.997 58.2501)" class="st2" cx="238.66" cy="136.91" rx="18.5" ry="18.5"/>
				</g>
				<g>
					<path class="st2" d="M251.65,136.91c0,7.17-5.81,12.98-12.98,12.98c-7.17,0-12.98-5.81-12.98-12.98
						c0-7.17,5.81-12.98,12.98-12.98C245.83,123.92,251.65,129.74,251.65,136.91z"/>
				</g>
			</g>
			<g class="st1">
				<g>
					<rect x="277.76" y="108.16" class="st2" width="2.24" height="11.53"/>
				</g>
				<g>
					<path class="st2" d="M280.97,109.06V94.88c0-1.15-0.94-2.09-2.09-2.09s-2.09,0.94-2.09,2.09v14.18H280.97z"/>
				</g>
				<g>
					<path class="st2" d="M278.88,96.63L278.88,96.63c-0.47,0-0.84-0.38-0.84-0.84v-9.67c0-0.47,0.38-0.84,0.84-0.84l0,0
						c0.47,0,0.84,0.38,0.84,0.84v9.67C279.72,96.25,279.35,96.63,278.88,96.63z"/>
				</g>
				<g>
					<circle class="st2" cx="278.88" cy="134.44" r="16.03"/>
				</g>
				<g>
					<path class="st2" d="M290.13,134.44c0,6.22-5.04,11.25-11.25,11.25c-6.22,0-11.25-5.04-11.25-11.25s5.04-11.25,11.25-11.25
						C285.1,123.19,290.13,128.23,290.13,134.44z"/>
				</g>
			</g>
		</g>
		<g>
			<g>
				<polygon class="st10" points="357.2,165.26 355.67,169.1 359.36,170.92 360.96,166.74 				"/>
			</g>
			<g>
				<polygon class="st11" points="365.82,184.35 360.72,184.35 364.69,179.42 				"/>
			</g>
			<g>
				<path class="st12" d="M362.7,186.87c5.18-3.16,12.01-8.59,20.75-17.8c7.17-10.98,6.88-27.47,6.88-27.47l-43.48,32.13l0.84,5.97
					C348.68,186.78,356.6,190.6,362.7,186.87z"/>
			</g>
			<g>
				<g>
					<defs>
						<path id="SVGID_1_" d="M297.73,174.54l-0.01,0.01c0,0.02-0.01,0.03,0,0.05C297.72,174.58,297.72,174.56,297.73,174.54z"/>
					</defs>
					<clipPath id="SVGID_2_">
						<use xlink:href="#SVGID_1_"  style="overflow:visible;"/>
					</clipPath>
					<rect x="297.72" y="174.54" class="st13" width="0.02" height="0.05"/>
				</g>
			</g>
			<g>
				<path class="st14" d="M286.75,185.36c0.09-0.6,3.05-0.22,5.35-0.77c2.53-0.6,4.47-2.1,5.66-2.1c1.43,0,7.49-0.25,9.22-0.58
					c1.47-0.28,3.83,3.65,4.14,5.58c0.94,0.24,1.94,0.54,3,0.91c-5.32,3.57-9.52,9.62-12.52,10.01c-3,0.39-4.48-2.92-4.48-2.92
					s-0.46-3.23,1.27-5.79c-0.73-0.21-1.44-0.48-2.11-0.81l-0.64-0.43C295.61,188.59,286.35,187.9,286.75,185.36z"/>
			</g>
			<g>
				<path class="st14" d="M316.18,179.6l-11.59,2.59c4.7,0.85,5.82,2.79,6.74,8.36l5.21,0.43c-1.16-4.88-2.37-10.23-2.19-10.62
					C314.4,180.26,316.47,179.91,316.18,179.6z"/>
			</g>
			<g>
				<path class="st12" d="M311.33,190.55c-1.32,1.13-9.49,8.3-12.02,6.38c-0.45-0.34-1.11-0.8-2.2-1.62
					c-0.07-0.7-0.21-3.41,1.29-5.62c-0.73-0.21-1.44-0.48-2.11-0.81l-0.64-0.43c-0.02,0.09-3.25-0.12-5.81-0.83
					c-0.01-0.4,0.16-0.74,0.56-0.98c2.83,0.22,16.65,1.84,16.65,1.84S310.08,189.55,311.33,190.55z"/>
			</g>
			<g>
				<path class="st14" d="M304.59,182.19c0,0,16.97-3.43,30.59-7.76c18.89-6.02,22.67-2.53,25.54,2.24
					c2.87,4.76,1.4,12.63-10.53,13.25c-11.93,0.62-33.64,1.07-33.64,1.07l-2.7-7.7L304.59,182.19z"/>
			</g>
			<g>
				<g>
					<path class="st15" d="M298.63,194.33c-8.18-0.17-17.54,4.52-17.54,4.52c0.19-0.92-0.12-2.07-0.94-3.36
						c-0.56-0.87-1.35-1.81-2.37-2.8l-0.02-0.04c0,0,8.07-5.25,12.78-5.86c4.71-0.62,16.54,0.96,19.34,3.59
						c0.35,0.34,0.55,0.68,0.57,1.04C310.77,194.66,306.81,194.51,298.63,194.33z"/>
				</g>
				<defs>
					<filter id="Adobe_OpacityMaskFilter" filterUnits="userSpaceOnUse" x="280.15" y="189.55" width="30.63" height="9.3">
						<feFlood  style="flood-color:white;flood-opacity:1" result="back"/>
						<feBlend  in="SourceGraphic" in2="back" mode="normal"/>
					</filter>
				</defs>
				<mask maskUnits="userSpaceOnUse" x="280.15" y="189.55" width="30.63" height="9.3" id="SVGID_3_">
					<g class="st16">
						<defs>
							<filter id="Adobe_OpacityMaskFilter_1_" filterUnits="userSpaceOnUse" x="280.15" y="190.03" width="30.33" height="8.82">
								<feFlood  style="flood-color:white;flood-opacity:1" result="back"/>
								<feBlend  in="SourceGraphic" in2="back" mode="normal"/>
							</filter>
						</defs>
						<mask maskUnits="userSpaceOnUse" x="280.15" y="190.03" width="30.33" height="8.82" id="SVGID_3_">
							<g class="st17">
							</g>
						</mask>
						
							<linearGradient id="SVGID_4_" gradientUnits="userSpaceOnUse" x1="-29.3297" y1="251.0183" x2="-24.0912" y2="224.8269" gradientTransform="matrix(0.8618 0.5073 -0.5073 0.8618 433.2214 9.0557)">
							<stop  offset="0.02" style="stop-color:#FFFFFF"/>
							<stop  offset="0.9801" style="stop-color:#808080"/>
						</linearGradient>
						<path class="st18" d="M298.63,194.33c-8.18-0.17-17.54,4.52-17.54,4.52c0.19-0.92-0.12-2.07-0.94-3.36
							c3.15-1.97,8.12-4.57,12.94-5.12c7.51-0.82,12.92,0.1,16.79,0c0.35,0.34,0.55,0.68,0.57,1.04
							C310.77,194.66,306.81,194.51,298.63,194.33z"/>
					</g>
				</mask>
				<g class="st19">
					<g>
						<defs>
							<path id="SVGID_5_" d="M298.63,194.33c-8.18-0.17-17.54,4.52-17.54,4.52c0.19-0.92-0.12-2.07-0.94-3.36
								c3.15-1.97,8.12-4.57,12.94-5.12c7.51-0.82,12.92,0.1,16.79,0c0.35,0.34,0.55,0.68,0.57,1.04
								C310.77,194.66,306.81,194.51,298.63,194.33z"/>
						</defs>
						<clipPath id="SVGID_6_">
							<use xlink:href="#SVGID_5_"  style="overflow:visible;"/>
						</clipPath>
						<polygon class="st20" points="280.15,198.8 280.21,198.85 280.15,198.85 						"/>
						<polygon class="st21" points="280.15,196.15 283.17,198.85 280.21,198.85 280.15,198.8 						"/>
						<polygon class="st22" points="280.15,193.5 286.13,198.85 283.17,198.85 280.15,196.15 						"/>
						<polygon class="st23" points="280.15,191.6 280.51,191.19 289.09,198.85 286.13,198.85 280.15,193.5 						"/>
						<polygon class="st24" points="280.51,191.19 281.83,189.71 292.05,198.85 289.09,198.85 						"/>
						<polygon class="st25" points="281.83,189.71 281.97,189.55 284.61,189.55 295.01,198.85 292.05,198.85 						"/>
						<polygon class="st26" points="287.57,189.55 297.97,198.85 295.01,198.85 284.61,189.55 						"/>
						<polygon class="st27" points="290.53,189.55 300.93,198.85 297.97,198.85 287.57,189.55 						"/>
						<polygon class="st28" points="293.49,189.55 303.89,198.85 300.93,198.85 290.53,189.55 						"/>
						<polygon class="st29" points="296.45,189.55 306.85,198.85 303.89,198.85 293.49,189.55 						"/>
						<polygon class="st29" points="310.77,198.55 310.5,198.85 306.85,198.85 296.45,189.55 310.77,189.55 						"/>
					</g>
				</g>
			</g>
			<g>
				<g>
					<defs>
						<path id="SVGID_7_" d="M288.61,196.81c-0.4,0.19-0.91,0.48-1.47,0.83C287.75,197.4,288.23,197.12,288.61,196.81z"/>
					</defs>
					<clipPath id="SVGID_8_">
						<use xlink:href="#SVGID_7_"  style="overflow:visible;"/>
					</clipPath>
					<polygon class="st30" points="288.57,196.81 288.08,197.64 287.14,197.64 287.14,196.81 					"/>
					<polygon class="st30" points="288.08,197.64 288.57,196.81 288.61,196.81 288.61,197.64 					"/>
				</g>
			</g>
			<g>
				<path class="st31" d="M280.06,200.36c-0.01,0.02-0.03,0.03-0.04,0.05c-0.5,0.23-1.14,0.59-1.84,1.03
					c-0.13,0.06-0.28,0.11-0.44,0.17c-4.83,1.68-14.45,1.55-26.01-2.37c-0.14-0.05-0.27-0.09-0.41-0.14
					c-11.42-3.9-21.11-8.76-25.01-13.31c-0.26-0.31-0.5-0.62-0.71-0.93c-1.01-1.49-1.4-2.95-0.94-4.31
					c1.82-5.43,14.85-4.71,28.15-0.64c1.09,0.32,2.19,0.69,3.27,1.06c10.58,3.66,17.8,8,21.67,11.72c2.53,2.42,3.63,4.61,3.31,6.17
					C280.97,199.41,280.6,199.91,280.06,200.36z"/>
			</g>
			<g>
				<path class="st15" d="M278.19,201.43c-4.16,2.57-11.09,7.84-11.09,7.84c-6.77-0.22-12.59-1.2-17.52-2.53
					c-14.54-3.93-21.32-10.94-21.32-10.94c0.13-2.03-2.3-10.47-2.65-10.97l0.03,0.02c3.33,4.88,13.76,10.19,26.13,14.37
					c1.84,0.63,3.63,1.15,5.36,1.59C266.57,203.23,274.24,203,278.19,201.43z"/>
			</g>
			<g>
				<path class="st32" d="M263.49,172.43l-2.69-2.66c0,0,5.51-4.67,9.21-0.11c3.7,4.55-1.12,9.12-1.12,9.12l-2.93-2.6l-5.19,4.49
					c0,0-1.96-3.53-1.63-4.1C259.46,176,263.49,172.43,263.49,172.43z"/>
			</g>
			<g>
				<path class="st33" d="M239.5,160.13c2.08,2.79,6.91-1.03,3.73-4.18C240.05,152.8,237.24,157.1,239.5,160.13z"/>
			</g>
			<g>
				<path class="st32" d="M239.28,171.98c3.68,0.32,3.85-6.41,0.21-5.7C235.84,166.98,234.63,171.58,239.28,171.98z"/>
			</g>
			<g>
				<path class="st33" d="M248.43,172.21c2.45,0.55,6,0.6,6.09-3.55c0.08-4.16,0.27-8.11-3.95-6.84
					C246.34,163.1,245.78,171.61,248.43,172.21z"/>
			</g>
			<defs>
				<filter id="Adobe_OpacityMaskFilter_2_" filterUnits="userSpaceOnUse" x="249.57" y="200.82" width="28.62" height="8.45">
					<feFlood  style="flood-color:white;flood-opacity:1" result="back"/>
					<feBlend  in="SourceGraphic" in2="back" mode="normal"/>
				</filter>
			</defs>
			<mask maskUnits="userSpaceOnUse" x="249.57" y="200.82" width="28.62" height="8.45" id="SVGID_9_">
				<g class="st34">
					<defs>
						<filter id="Adobe_OpacityMaskFilter_3_" filterUnits="userSpaceOnUse" x="249.57" y="200.82" width="28.62" height="8.45">
							<feFlood  style="flood-color:white;flood-opacity:1" result="back"/>
							<feBlend  in="SourceGraphic" in2="back" mode="normal"/>
						</filter>
					</defs>
					<mask maskUnits="userSpaceOnUse" x="249.57" y="200.82" width="28.62" height="8.45" id="SVGID_9_">
						<g class="st35">
						</g>
					</mask>
					
						<linearGradient id="SVGID_10_" gradientUnits="userSpaceOnUse" x1="-65.7369" y1="253.9733" x2="-42.7356" y2="253.9733" gradientTransform="matrix(0.8618 0.5073 -0.5073 0.8618 433.2214 9.0557)">
						<stop  offset="0.02" style="stop-color:#FFFFFF"/>
						<stop  offset="0.9801" style="stop-color:#808080"/>
					</linearGradient>
					<path class="st36" d="M278.19,201.43c-4.16,2.57-11.09,7.84-11.09,7.84c-6.77-0.22-12.59-1.2-17.52-2.53
						c2.11-1.61,4.64-3.6,7.53-5.92C266.57,203.23,274.24,203,278.19,201.43z"/>
				</g>
			</mask>
			<g class="st19">
				<g>
					<defs>
						<path id="SVGID_11_" d="M278.19,201.43c-4.16,2.57-11.09,7.84-11.09,7.84c-6.77-0.22-12.59-1.2-17.52-2.53
							c2.11-1.61,4.64-3.6,7.53-5.92C266.57,203.23,274.24,203,278.19,201.43z"/>
					</defs>
					<clipPath id="SVGID_12_">
						<use xlink:href="#SVGID_11_"  style="overflow:visible;"/>
					</clipPath>
					<polygon class="st37" points="250.5,200.82 249.57,202.4 249.57,200.82 					"/>
					<polygon class="st38" points="252.47,200.82 249.57,205.75 249.57,202.4 250.5,200.82 					"/>
					<polygon class="st39" points="254.44,200.82 249.57,209.1 249.57,205.75 252.47,200.82 					"/>
					<polygon class="st40" points="256.41,200.82 251.44,209.27 249.57,209.27 249.57,209.1 254.44,200.82 					"/>
					<polygon class="st41" points="258.39,200.82 253.41,209.27 251.44,209.27 256.41,200.82 					"/>
					<polygon class="st42" points="260.36,200.82 255.38,209.27 253.41,209.27 258.39,200.82 					"/>
					<polygon class="st43" points="262.33,200.82 257.36,209.27 255.38,209.27 260.36,200.82 					"/>
					<polygon class="st44" points="264.3,200.82 259.33,209.27 257.36,209.27 262.33,200.82 					"/>
					<polygon class="st45" points="266.27,200.82 261.3,209.27 259.33,209.27 264.3,200.82 					"/>
					<polygon class="st46" points="268.24,200.82 263.27,209.27 261.3,209.27 266.27,200.82 					"/>
					<polygon class="st47" points="270.21,200.82 265.24,209.27 263.27,209.27 268.24,200.82 					"/>
					<polygon class="st47" points="265.24,209.27 270.21,200.82 278.19,200.82 278.19,209.27 					"/>
				</g>
			</g>
			<g class="st48">
				<g>
					<defs>
						<path id="SVGID_13_" d="M280.06,200.36c-0.01,0.02-0.03,0.03-0.04,0.05c-0.5,0.23-1.14,0.59-1.84,1.03
							c-0.13,0.06-0.28,0.11-0.44,0.17c-4.83,1.68-14.45,1.55-26.01-2.37c-0.14-0.05-0.27-0.09-0.41-0.14
							c1.53-6.09,2.83-13.83,1.5-19.19c1.09,0.32,2.19,0.69,3.27,1.06c10.58,3.66,17.8,8,21.67,11.72c2.53,2.42,3.63,4.61,3.31,6.17
							C280.97,199.41,280.6,199.91,280.06,200.36z"/>
					</defs>
					<clipPath id="SVGID_14_">
						<use xlink:href="#SVGID_13_"  style="overflow:visible;"/>
					</clipPath>
					<polygon class="st49" points="253.56,179.9 251.34,183.69 251.34,179.9 					"/>
					<polygon class="st50" points="257.98,179.9 251.34,191.19 251.34,183.69 253.56,179.9 					"/>
					<polygon class="st51" points="262.39,179.9 251.34,198.69 251.34,191.19 257.98,179.9 					"/>
					<polygon class="st52" points="263.78,179.9 266.03,181.23 253.12,203.16 251.34,202.11 251.34,198.69 262.39,179.9 					"/>
					<polygon class="st53" points="266.03,181.23 269.31,183.16 257.46,203.28 253.33,203.28 253.12,203.16 					"/>
					<polygon class="st54" points="269.31,183.16 272.59,185.09 261.88,203.28 257.46,203.28 					"/>
					<polygon class="st55" points="272.59,185.09 275.87,187.02 266.29,203.28 261.88,203.28 					"/>
					<polygon class="st55" points="275.87,187.02 281.41,190.28 281.41,203.28 266.29,203.28 					"/>
				</g>
			</g>
			<g>
				<path class="st56" d="M277.75,201.6c-4.83,1.68-14.45,1.55-26.01-2.37c-11.59-3.91-21.48-8.83-25.42-13.45
					c1.44-3.63,11.75-4.9,24.15-0.67C261.44,188.89,276.6,195.58,277.75,201.6z"/>
			</g>
			<g>
				<path class="st57" d="M236.11,184.62c-2.62,1.85,1,6.96,4.21,4.4C243.54,186.44,239.38,182.3,236.11,184.62z"/>
			</g>
			<g>
				<path class="st57" d="M257.11,161.72l3.66-3.67l-2.62-2.76c0,0,5.03-3.33,8.12,0.83c3.09,4.16-1.52,7.41-1.52,7.41l-1.92-2.43
					l-3.12,3.09L257.11,161.72z"/>
			</g>
			<g>
				<path class="st14" d="M288.17,190.04c2.45-2.06,6.29-4.09,7.77-3.16c1.48,0.93-0.06,2.07-0.06,2.07s2.38-1.63,3.35-0.59
					c0.97,1.04-0.51,2.31-0.51,2.31s3.04-2.61,3.99-1.01c0.96,1.6-0.39,2.38-0.39,2.38s3.01-1.92,3.23-0.66
					c0.21,1.26-3.13,5.82-5.85,6.36c-2.72,0.55-2.35-1.2-2.35-1.2s-2.17,1-3.07-0.34c-0.9-1.35,0.05-1.82,0.05-1.82
					s-2.82,1.67-3.35,0.65c-0.54-1.02,0.01-2.52,0.01-2.52S285.04,193.59,288.17,190.04z"/>
			</g>
			<g>
				<path class="st58" d="M430.06,139.78c0,0,8.31,3.68,9.72,6.39c1.41,2.7,10.84,39.74,10.84,39.74l1.48,8.49
					c0,0-4.59,12.83-14.05,5.31c-9.45-7.52-11.75-15.95-11.75-15.95L430.06,139.78z"/>
			</g>
			<g>
				<path class="st59" d="M440.06,201.11c0,0-2.15-12.41,10.84-14.07c2.3,0.76,4.52,1.5,4.52,1.5s-9.81,0.79-12.82,13.91
					L440.06,201.11z"/>
			</g>
			<g>
				<path class="st60" d="M433.15,195.1c1.37,1.52,2.98,3.08,4.9,4.61c9.46,7.52,14.05-5.31,14.05-5.31l-1.48-8.49
					c0,0-1.38-5.42-3.16-12.25C442.35,176.47,436.22,182.43,433.15,195.1z"/>
			</g>
			<g>
				<path class="st14" d="M477.09,151.71c0,0-13.63,11.68-24.9,21.38c-11.27,9.7-16.35,22.13-14.02,27.43
					c2.34,5.29,10.55,4.39,18.22-5.4c7.67-9.78,21.03-27.99,21.03-27.99l-4.94-6.91L477.09,151.71z"/>
			</g>
			<g>
				<path class="st58" d="M389.13,139.78c0,0-2.81,1.24-4.31,3.72c-1.51,2.48-23.86,19.61-23.86,19.61l4.51,10.32l2.69,9.71
					c0.07,0.03,19.68-12.48,19.68-12.48C391.78,164.11,395.56,147.94,389.13,139.78z"/>
			</g>
			<g>
				<path class="st61" d="M393.43,380.97c0,0-8.11,7.94-11.05,8.57c-2.94,0.63-9.38,1.26-10.75,2.14c-1.37,0.88-2.64,4.6-2.79,5.29
					c-0.15,0.69-0.51,3.15,1.47,3.15c1.98,0,34.77,0,36.29,0c1.52,0,1.82-0.95,1.82-2.33c0-1.39-0.91-2.77-0.91-2.77s0-6.05,0-7.75
					c0-1.7-0.81-3.09-2.58-3.21c-3.06-0.22-6.4,1.74-8.38-1.85C395.67,380.61,395.29,379.38,393.43,380.97z"/>
			</g>
			<g>
				<path class="st61" d="M393.43,380.97c0,0-7.78,7.61-10.86,8.52c1.12,1.38,3.06,2.05,3.91,1.98c1.12-0.1,9.5-4.36,10.25-5.5
					c0.76-1.14-0.03-3.49-0.03-3.49h0c-0.05-0.09-0.11-0.17-0.16-0.27C395.67,380.61,395.29,379.38,393.43,380.97z"/>
			</g>
			<g>
				<path class="st61" d="M369.51,395.01c-0.36,0.89-0.61,1.67-0.67,1.95c-0.15,0.69-0.51,3.15,1.47,3.15c1.98,0,34.77,0,36.29,0
					c1.52,0,1.82-0.95,1.82-2.33c0-1.39-0.91-2.77-0.91-2.77H369.51z"/>
			</g>
			<g>
				<path class="st61" d="M390.15,214.98l-2.44,5.04l-0.65,7.73c0,0-2.68,4.26-3.15,5.53c-0.47,1.28-2.1,11.7-2.27,13.62
					c-0.17,1.91,8.29,87.03,9.44,102.35c1.16,15.32-0.16,31.92-0.31,33.41c-0.16,1.49,7.04,4.04,9.68,4.26
					c1.54,0.12,4.76-0.3,7.3-0.9l0.05-0.01l0,0c1.01-0.26,1.08-1.53,1.08-1.53l0.69-26.94l0,0c-0.08-4.01-0.07-15.21,0.09-19.87
					c0.17-4.89,2.49-90.01,2.49-90.01l-6.76-30.43L390.15,214.98z"/>
			</g>
			<g>
				<g>
					<path class="st62" d="M391.01,379.57c-0.11,1.66-0.2,2.76-0.24,3.09c-0.16,1.49,7.04,4.04,9.68,4.26
						c1.54,0.12,4.76-0.3,7.3-0.9l0.05-0.01l0,0c1.01-0.26,1.08-1.53,1.08-1.53l0.69-26.94c-0.08-4.01-0.07-15.21,0.09-19.87
						c0.17-4.89,2.49-90.01,2.49-90.01l-3.46-15.58c-1.74,0.28-3.01,2.04-2.96,6.66c0,0,0.85,71.88,0,98.63
						C404.94,362.17,400.98,375.99,391.01,379.57z"/>
				</g>
			</g>
			<g>
				<path class="st61" d="M430.53,384.96c0,0,0.33-4.73,3.02-4.73c2.68,0,3.47,0,5.24,0c1.78,0,3.51,2.9,4.01,5.02
					c0,0,1.73,0.48,2.11,2.32c0.37,1.84,1.2,8.69,1.32,9.36c0.12,0.68,0.58,3.19-2.11,3.19c-2.68,0-17.47,0-19.16,0
					c-1.69,0-1.49-1.31-1.49-2.05c0-0.75,0.37-3.53,1.28-4.97C425.66,391.64,430.53,384.96,430.53,384.96z"/>
			</g>
			<g>
				<path class="st61" d="M430.53,384.96c0,0,0.33-4.73,3.02-4.73c2.68,0,3.47,0,5.24,0c1.77,0,3.51,2.9,4.01,5.02l-2.16,4.77
					c0,0-0.96,1.07-2.83,1.07c-1.88,0-6.07,0-6.07,0s-1.59-0.33-1.52-1.87C430.31,387.68,430.53,384.96,430.53,384.96z"/>
			</g>
			<g>
				<path class="st61" d="M446.13,396.26c0.05,0.33,0.08,0.57,0.1,0.67c0.12,0.68,0.58,3.19-2.11,3.19c-2.68,0-17.47,0-19.16,0
					c-1.69,0-1.49-1.31-1.49-2.05c0-0.32,0.07-1.01,0.21-1.8H446.13z"/>
			</g>
			<g>
				<path class="st61" d="M433.06,215.38l1.11,3.64c0,0,3.52,2.34,3.74,3.51c0.22,1.17,1.24,3.73,1.58,5.43
					c0.33,1.7-1.47,5.82-0.92,7.09c0.55,1.28,3.55,63.88,3.55,71.31c0,7.43,0.21,7.11,0.55,12.83h0l2.32,64.42
					c0,0,0.37,2.11-2.05,2.67c-2.42,0.56-11.75,0.15-13.41-0.21c-1.21-0.44-2.13-0.89-2.49-1.2c-1.11-0.96-0.78-16.92-1-19.36
					c-0.22-2.45-5.1-51.81-6.43-60.11c-1.33-8.3-9.79-64.53-11.79-72.62c-1.99-8.09-9.51-12.49-9.51-12.49L433.06,215.38z"/>
			</g>
			<g>
				<g>
					<g>
						<path class="st62" d="M440.14,260.06c-0.68-13.35-1.34-24.47-1.57-25c-0.55-1.28,1.25-5.39,0.92-7.09
							c-0.33-1.7-1.35-4.26-1.58-5.43c-0.22-1.17-3.74-3.51-3.74-3.51l-1.11-3.64l-9.86,1.4l-12.72,20.9
							C410.48,237.68,430.15,227.03,440.14,260.06z"/>
					</g>
				</g>
				<g>
					<g>
						<path class="st62" d="M426.91,384.69c0.04,0.09,0.08,0.16,0.13,0.2c0.36,0.31,1.28,0.76,2.49,1.2
							c1.67,0.36,10.99,0.77,13.41,0.21c2.42-0.56,2.05-2.67,2.05-2.67l-0.62-17.12C441.41,378.86,435.9,385.17,426.91,384.69z"/>
					</g>
				</g>
			</g>
			<g>
				<path class="st63" d="M389.13,139.78c2.63-0.69,22.78-5.64,41.74,0.31c2.59,0.81,4.35,0.92,4.7,5.78
					c0.62,8.46,0.46,26.51,0.59,37.54c0.17,13.99,6.67,41.78,6.54,47.39c-8.72,10.79-57.21,7.33-63.81,1.26
					c-1.82-1.01,2.36-21.54,3.83-33.73c1.04-8.66,1.89-53.08,5.84-58.19C388.71,139.96,388.91,139.83,389.13,139.78z"/>
			</g>
			<g>
				<g>
					<path class="st64" d="M428.53,99.79c0,0,3.25-5.13,6.49-1.85c3.25,3.28,1.75,11.07-6.49,11.69V99.79z"/>
				</g>
				<g>
					<path class="st64" d="M391.54,99.79c0,0-3.25-5.13-6.49-1.85c-3.25,3.28-1.75,11.07,6.49,11.69V99.79z"/>
				</g>
				<g>
					<path class="st64" d="M405.63,124.76l-1.33,13.54c0,0,2.12,3.3,6.1,3.3c3.98,0,6.1-3.3,6.1-3.3l-1.86-13.54H405.63z"/>
				</g>
				<g>
					<path class="st65" d="M410.29,75.05h-0.76c-11.72,0-21.21,9.5-21.21,21.21v12.19c0,11.72,9.5,21.21,21.21,21.21h0.76
						c11.72,0,21.21-9.5,21.21-21.21V96.27C431.5,84.55,422,75.05,410.29,75.05z"/>
				</g>
			</g>
			<g>
				<g>
					<path class="st66" d="M402.84,100.71c0.38,0.17,0.56,0.62,0.39,1c-0.17,0.38-0.62,0.56-1,0.39c-0.01,0-2.3-1.06-4.46,0.33
						c-0.35,0.23-0.82,0.13-1.05-0.23c-0.23-0.35-0.12-0.82,0.23-1.05C399.8,99.31,402.83,100.7,402.84,100.71z"/>
				</g>
				<g>
					<path class="st66" d="M420.71,100.85c0.37,0.2,0.5,0.66,0.3,1.03c-0.2,0.37-0.66,0.5-1.03,0.31c-0.01,0-2.21-1.24-4.48-0.03
						c-0.37,0.2-0.83,0.06-1.03-0.31c-0.2-0.37-0.06-0.83,0.31-1.03C417.79,99.21,420.7,100.85,420.71,100.85z"/>
				</g>
			</g>
			<g>
				<path class="st12" d="M407.47,111.57c-0.12-0.13-0.14-0.39-0.11-0.71c-0.16,0.62-0.2,1.15-0.01,1.36
					c0.6,0.64,3.01,0.33,3.12-0.13c0.02-0.08,0-0.25-0.05-0.47C409.86,111.97,407.98,112.13,407.47,111.57z"/>
			</g>
			<g>
				<path class="st66" d="M402.57,105.99c0,1.26-1.02,2.28-2.28,2.28c-1.26,0-2.28-1.02-2.28-2.28c0-1.26,1.02-2.28,2.28-2.28
					C401.55,103.71,402.57,104.73,402.57,105.99z"/>
			</g>
			<g>
				<path class="st66" d="M420.02,105.99c0,1.26-1.02,2.28-2.28,2.28c-1.26,0-2.28-1.02-2.28-2.28c0-1.26,1.02-2.28,2.28-2.28
					C419.01,103.71,420.02,104.73,420.02,105.99z"/>
			</g>
			<g>
				<path class="st67" d="M400.29,115.55c0,1.64-1.28,2.97-2.85,2.97c-1.58,0-2.85-1.33-2.85-2.97c0-1.64,1.28-2.97,2.85-2.97
					C399.01,112.58,400.29,113.91,400.29,115.55z"/>
			</g>
			<g>
				<path class="st67" d="M424.52,115.55c0,1.64-1.28,2.97-2.85,2.97c-1.58,0-2.85-1.33-2.85-2.97c0-1.64,1.28-2.97,2.85-2.97
					C423.24,112.58,424.52,113.91,424.52,115.55z"/>
			</g>
			<g>
				<path class="st68" d="M409.68,71.03c-28.82,0-26.08,36.88-18.75,42.74c0,0-6.73-28.51,18.75-28.47
					c25.49-0.04,18.75,28.47,18.75,28.47C435.77,107.92,438.51,71.03,409.68,71.03z"/>
			</g>
			<g>
				<path class="st68" d="M424.33,101.76c-1.81-1.5-3.21-3.22-4.02-4.93c3,2.54,7.46,4.21,11.09,4.15
					c-4.78-7.05-6.53-11.83-6.19-17.27c-21.51-18.01-34.04,4.53-34.04,4.53s-7.1,16.63-1.04,16.43c3.89-0.12,8.9-8.9,12-15.18
					c2.83,3.97,7.12,7.86,11.72,9.91c-1.89-1.86-3.11-3.95-3.43-5.87C413.69,97.25,419,100.4,424.33,101.76z"/>
			</g>
			<g>
				<g>
					<path class="st63" d="M368.52,66.53c2.57,3.51,6.66,6.16,11.63,6.67c0.26,0.03,0.53,0.05,0.81,0.08
						c11.42,0.63,26.56-5.98,34.36-5.98c7.79,0,14.32,1.45,18.49,6.53c0.1,0.13,0.22,0.26,0.33,0.38c2.33,2.72,5.74,5.35,11.45,4.06
						c5.21-1.18,5.88-6.98,4.15-11.09c-0.24-0.61-0.54-1.18-0.89-1.69c-2.72-3.99-2.72-9.24-8.89-14.41
						c-6.16-5.17-17.76-7.62-28.82-4.44c-11.05,3.17-14.63,1.81-21.05-0.73c-6.42-2.54-18.92-2.26-23.28,6.34
						C364.5,56.83,365.42,62.31,368.52,66.53z"/>
				</g>
				<defs>
					<filter id="Adobe_OpacityMaskFilter_4_" filterUnits="userSpaceOnUse" x="368.52" y="59.52" width="82.07" height="19.08">
						<feFlood  style="flood-color:white;flood-opacity:1" result="back"/>
						<feBlend  in="SourceGraphic" in2="back" mode="normal"/>
					</filter>
				</defs>
				<mask maskUnits="userSpaceOnUse" x="368.52" y="59.52" width="82.07" height="19.08" id="SVGID_15_">
					<g class="st69">
						<defs>
							<filter id="Adobe_OpacityMaskFilter_5_" filterUnits="userSpaceOnUse" x="368.52" y="59.52" width="82.07" height="19.08">
								<feFlood  style="flood-color:white;flood-opacity:1" result="back"/>
								<feBlend  in="SourceGraphic" in2="back" mode="normal"/>
							</filter>
						</defs>
						<mask maskUnits="userSpaceOnUse" x="368.52" y="59.52" width="82.07" height="19.08" id="SVGID_15_">
							<g class="st70">
							</g>
						</mask>
						
							<linearGradient id="SVGID_16_" gradientUnits="userSpaceOnUse" x1="123.2791" y1="69.0597" x2="205.3472" y2="69.0597" gradientTransform="matrix(-1 0 0 1 573.8716 0)">
							<stop  offset="0.02" style="stop-color:#FFFFFF"/>
							<stop  offset="0.985" style="stop-color:#4D4D4D"/>
						</linearGradient>
						<path class="st71" d="M368.52,66.53c2.57,3.51,6.66,6.16,11.63,6.67c0.26,0.03,0.53,0.05,0.81,0.08
							c11.42,0.63,26.56-5.98,34.36-5.98c7.79,0,14.32,1.45,18.49,6.53c0.1,0.13,0.22,0.26,0.33,0.38
							c2.33,2.72,5.74,5.35,11.45,4.06c5.21-1.18,5.88-6.98,4.15-11.09c-1.2,3.04-3.63,5.54-8.1,3.48
							c-8.65-3.99-15.54-15.82-31.59-9.09C398.89,66.23,379.73,70.29,368.52,66.53z"/>
					</g>
				</mask>
				<g>
					<path class="st72" d="M368.52,66.53c2.57,3.51,6.66,6.16,11.63,6.67c0.26,0.03,0.53,0.05,0.81,0.08
						c11.42,0.63,26.56-5.98,34.36-5.98c7.79,0,14.32,1.45,18.49,6.53c0.1,0.13,0.22,0.26,0.33,0.38c2.33,2.72,5.74,5.35,11.45,4.06
						c5.21-1.18,5.88-6.98,4.15-11.09c-1.2,3.04-3.63,5.54-8.1,3.48c-8.65-3.99-15.54-15.82-31.59-9.09
						C398.89,66.23,379.73,70.29,368.52,66.53z"/>
				</g>
				<g>
					<g>
						<path class="st63" d="M380.13,73.2c0.01,0.23,0.02,0.47,0.05,0.71c0.54,7.99,4.33,16.82,5.9,20.18
							c0.7-0.83,1.44-1.51,2.22-2.05c3.29-2.25,13.96-5.39,35.64,1.22c2.87,0.88,6.11,2.36,9.39,3.6
							c-0.72-6.21,0.97-22.45,0.81-22.64V74.2c-0.11-0.12-0.23-0.25-0.33-0.38c-4.17-5.08-10.7-6.53-18.49-6.53
							c-7.8,0-22.94,6.61-34.36,5.98c-0.27-0.02-0.55-0.04-0.81-0.08H380.13z"/>
					</g>
					<defs>
						<filter id="Adobe_OpacityMaskFilter_6_" filterUnits="userSpaceOnUse" x="380.13" y="67.29" width="54.01" height="29.56">
							<feFlood  style="flood-color:white;flood-opacity:1" result="back"/>
							<feBlend  in="SourceGraphic" in2="back" mode="normal"/>
						</filter>
					</defs>
					<mask maskUnits="userSpaceOnUse" x="380.13" y="67.29" width="54.01" height="29.56" id="SVGID_17_">
						<g class="st73">
							<defs>
								<filter id="Adobe_OpacityMaskFilter_7_" filterUnits="userSpaceOnUse" x="380.13" y="67.29" width="54.01" height="29.14">
									<feFlood  style="flood-color:white;flood-opacity:1" result="back"/>
									<feBlend  in="SourceGraphic" in2="back" mode="normal"/>
								</filter>
							</defs>
							<mask maskUnits="userSpaceOnUse" x="380.13" y="67.29" width="54.01" height="29.14" id="SVGID_17_">
								<g class="st74">
								</g>
							</mask>
							
								<linearGradient id="SVGID_18_" gradientUnits="userSpaceOnUse" x1="139.7297" y1="81.8634" x2="193.7419" y2="81.8634" gradientTransform="matrix(-1 0 0 1 573.8716 0)">
								<stop  offset="0.02" style="stop-color:#FFFFFF"/>
								<stop  offset="0.985" style="stop-color:#4D4D4D"/>
							</linearGradient>
							<path class="st75" d="M380.13,73.2c0.01,0.23,0.02,0.47,0.05,0.71c5.4,1.99,10.5,1.81,19.99-0.18
								c10.71-2.24,21.47-1.26,23.77,19.53c2.87,0.88,5.94,1.94,9.21,3.18c-0.72-6.21,1.14-22.04,0.98-22.22V74.2
								c-0.11-0.12-0.23-0.25-0.33-0.38c-4.17-5.08-10.7-6.53-18.49-6.53c-7.8,0-22.94,6.61-34.36,5.98
								c-0.27-0.02-0.55-0.04-0.81-0.08H380.13z"/>
						</g>
					</mask>
					<g>
						<path class="st72" d="M380.13,73.2c0.01,0.23,0.02,0.47,0.05,0.71c5.4,1.99,10.5,1.81,19.99-0.18
							c10.71-2.24,21.47-1.26,23.77,19.53c2.87,0.88,6.11,2.36,9.39,3.6c-0.72-6.21,0.97-22.45,0.81-22.64V74.2
							c-0.11-0.12-0.23-0.25-0.33-0.38c-4.17-5.08-10.7-6.53-18.49-6.53c-7.8,0-22.94,6.61-34.36,5.98
							c-0.27-0.02-0.55-0.04-0.81-0.08H380.13z"/>
					</g>
				</g>
			</g>
			<g>
				<path class="st59" d="M360.96,163.1l-3.77,2.16c0,0,5.58,5.13,8.33,19.76l2.64-1.89C368.16,183.14,368.55,173.33,360.96,163.1z"
					/>
			</g>
			<g>
				<path class="st76" d="M424.82,149.82l-0.02-0.25l-0.22-0.11c-8.11-4.06-14.76-8.48-14.82-8.53l-0.5,0.75
					c0.07,0.04,6.64,4.42,14.7,8.47c1.31,14.52,5.27,78.86,5.73,86.31c0.3-0.05,0.59-0.11,0.89-0.17
					C430.07,228.25,426.1,163.78,424.82,149.82z"/>
			</g>
			<g>
				<path class="st76" d="M404.39,134.41c0,0,2.21,3.06,5.21,4.05c0.3,1.75,0.62,3.49,0.62,3.49s-4.64,0.69-5.93-3.82
					C404.26,137.18,404.39,134.41,404.39,134.41z"/>
			</g>
			<g>
				<path class="st76" d="M416.39,134.41c0,0-2.21,3.06-5.21,4.05c-0.3,1.75-0.62,3.49-0.62,3.49s4.7,0.3,5.97-3.6
					C416.56,137.4,416.39,134.41,416.39,134.41z"/>
			</g>
			<g>
				<g>
					<path class="st76" d="M420.73,155.37c0.99,1.68-0.75,3.42-2.44,2.44c-0.17-0.1-0.33-0.26-0.43-0.43
						c-0.99-1.68,0.75-3.42,2.44-2.43C420.47,155.04,420.63,155.19,420.73,155.37z"/>
				</g>
				<g>
					<path class="st76" d="M403.36,155.37c0.99,1.68-0.75,3.42-2.43,2.43c-0.17-0.1-0.33-0.26-0.43-0.43
						c-0.99-1.68,0.75-3.42,2.43-2.43C403.11,155.04,403.26,155.19,403.36,155.37z"/>
				</g>
			</g>
			<g>
				<g>
					<path class="st76" d="M420.73,178.92c0.99,1.68-0.75,3.42-2.43,2.43c-0.17-0.1-0.33-0.26-0.43-0.43
						c-0.99-1.68,0.75-3.42,2.43-2.43C420.47,178.6,420.63,178.75,420.73,178.92z"/>
				</g>
				<g>
					<path class="st76" d="M403.36,178.92c0.99,1.68-0.75,3.42-2.43,2.44c-0.17-0.1-0.33-0.26-0.43-0.43
						c-0.99-1.68,0.75-3.42,2.43-2.44C403.11,178.59,403.26,178.75,403.36,178.92z"/>
				</g>
			</g>
			<g>
				<g>
					<path class="st76" d="M421.73,202.48c0.99,1.68-0.75,3.42-2.44,2.43c-0.17-0.1-0.33-0.26-0.43-0.43
						c-0.99-1.68,0.75-3.42,2.43-2.43C421.47,202.15,421.62,202.31,421.73,202.48z"/>
				</g>
				<g>
					<path class="st76" d="M404.36,202.48c0.99,1.68-0.75,3.42-2.44,2.43c-0.17-0.1-0.33-0.26-0.43-0.43
						c-0.99-1.68,0.75-3.42,2.44-2.43C404.11,202.15,404.26,202.3,404.36,202.48z"/>
				</g>
			</g>
			<g>
				<g>
					<path class="st76" d="M422.18,226.03c0.99,1.68-0.75,3.42-2.43,2.43c-0.17-0.1-0.33-0.26-0.43-0.43
						c-0.99-1.68,0.75-3.42,2.43-2.44C421.92,225.71,422.08,225.86,422.18,226.03z"/>
				</g>
				<g>
					<path class="st76" d="M404.82,226.03c0.99,1.68-0.75,3.42-2.44,2.43c-0.17-0.1-0.33-0.26-0.43-0.43
						c-0.99-1.68,0.75-3.42,2.44-2.44C404.56,225.71,404.71,225.86,404.82,226.03z"/>
				</g>
			</g>
			<g>
				<path class="st14" d="M490.45,138.42c-0.56-0.28-2.01,2.47-3.85,4.09c-2.03,1.79-4.47,2.55-5.18,3.56
					c-0.86,1.22-4.69,6.22-6.01,7.5c-1.12,1.09,0.81,5.44,2.27,6.86c-0.35,0.95-0.7,1.97-1.02,3.1c6.22-2.39,13.88-2.35,16-4.66
					c2.12-2.32,0.2-5.56,0.2-5.56s-2.48-2.32-5.68-2.38c0.26-0.74,0.45-1.51,0.57-2.29l0.02-0.8
					C487.9,147.9,492.85,139.6,490.45,138.42z"/>
			</g>
			<g>
				<path class="st14" d="M469.38,158.2l7.7-6.5c-2.09,4.51-1.11,6.63,3.08,10.73l-2.75,4.69c-3.46-3.9-7.29-8.13-7.73-8.21
					C469.57,158.9,469.47,158.63,469.38,158.2z"/>
			</g>
			<g>
				<path class="st12" d="M480.17,162.44c1.75-0.45,12.75-3.11,12.62-6.41c-0.02-0.59-0.02-1.42-0.06-2.84
					c-0.55-0.47-2.78-2.21-5.55-2.27c0.26-0.74,0.45-1.51,0.57-2.29l0.02-0.8c0.08,0.03,1.84-2.84,2.77-5.44
					c-0.34-0.25-0.72-0.31-1.17-0.11c-1.51,2.54-8.39,15.27-8.39,15.27S480.07,160.78,480.17,162.44z"/>
			</g>
			<g>
				<g>
					<g>
						<path class="st56" d="M484.01,156.96c-0.25-0.01-0.5-0.07-0.73-0.2c-0.8-0.44-1.1-1.44-0.66-2.24l14.19-25.98
							c0.44-0.8,1.44-1.1,2.24-0.66c0.8,0.44,1.1,1.44,0.66,2.24l-14.19,25.98C485.21,156.67,484.62,156.98,484.01,156.96z"/>
					</g>
				</g>
				<g>
					<path class="st31" d="M482.71,162.69c-0.43,0.84-1.59,1.1-2.6,0.59l0,0c-1.01-0.51-1.48-1.61-1.05-2.45l4.04-7.94
						c0.43-0.84,1.59-1.1,2.6-0.59l0,0c1.01,0.51,1.48,1.61,1.05,2.45L482.71,162.69z"/>
				</g>
				<g>
					<path class="st31" d="M510.77,111.94c-3.44-1.99-7.22-3.47-8.3-3.09c-2.32,0.8-4.63,5.57-6.42,9.83
						c-1.78,4.26-2.52,6.34-1.71,7.89c0.81,1.55,6.15,5.94,8.6,5.91c2.45-0.03,8.23-8.37,9.89-12.28
						C514.48,116.27,514.2,113.93,510.77,111.94z M495.72,124.74c-0.9-0.97,6.18-14.82,7.26-13.89c0.57,0.49-0.6,3.84-2.11,6.92
						C499.36,120.86,496.62,125.71,495.72,124.74z M498.3,128.1c-0.69-0.49,2.13-4.72,4.12-8.16c1.99-3.44,2.94-7.03,3.85-6.53
						c0.74,0.4,0.17,4.45-2.39,7.87C501.33,124.7,498.99,128.59,498.3,128.1z M507.27,125.25c-2.69,3.41-4.83,4.51-5.16,3.91
						c-0.33-0.59,2.55-3.52,4.18-6.34c1.63-2.81,3.76-7.03,3.98-6.49C510.7,117.43,509.96,121.84,507.27,125.25z"/>
				</g>
			</g>
			<g>
				<path class="st14" d="M493.58,142.42c-3.22,0.85-7.24,2.91-7.34,4.72c-0.1,1.81,1.8,1.19,1.8,1.19s-2.81,1.05-2.51,2.5
					c0.3,1.45,2.27,0.95,2.27,0.95s-4.04,1.02-3.25,2.79c0.79,1.77,2.26,1.09,2.26,1.09s-3.44,1.42-2.49,2.35
					c0.95,0.94,6.82,0.81,8.92-1.18c2.09-1.99,0.38-2.72,0.38-2.72s2.15-1.25,1.54-2.82c-0.61-1.57-1.58-1.04-1.58-1.04
					s3.11-1.4,2.56-2.46c-0.55-1.07-2.15-1.49-2.15-1.49S498.48,141.89,493.58,142.42z"/>
			</g>
		</g>
		<path class="st66" d="M408.48,115.79c0,0-2.48-5.69-12.06,0c-4.88,2.9-8.86,3.73-16.29,1.95
			C380.13,117.74,415.23,130.8,408.48,115.79z"/>
		<path class="st66" d="M408.72,115.79c0,0,2.48-5.69,12.06,0c4.88,2.9,8.86,3.73,16.29,1.95
			C437.07,117.74,401.98,130.8,408.72,115.79z"/>
	</g>
</g>
</svg>
